<svg xmlns="http://www.w3.org/2000/svg" width="1600" height="600" viewBox="0 0 1600 600">
  <defs>
    <linearGradient id="g" x1="0" y1="0" x2="1" y2="1">
      <stop offset="0" stop-color="#2563eb"/>
      <stop offset="0.55" stop-color="#06b6d4"/>
      <stop offset="1" stop-color="#10b981"/>
    </linearGradient>
    <radialGradient id="r" cx="25%" cy="30%" r="70%">
      <stop offset="0" stop-color="#ffffff" stop-opacity="0.25"/>
      <stop offset="1" stop-color="#ffffff" stop-opacity="0"/>
    </radialGradient>
  </defs>
  <rect width="1600" height="600" fill="url(#g)"/>
  <rect width="1600" height="600" fill="url(#r)"/>
  <g fill="#ffffff" fill-opacity="0.22">
    <circle cx="220" cy="120" r="90"/>
    <circle cx="520" cy="210" r="140"/>
    <circle cx="1220" cy="160" r="120"/>
    <circle cx="980" cy="420" r="170"/>
  </g>
  <g stroke="#ffffff" stroke-opacity="0.25" stroke-width="2" fill="none">
    <path d="M0,480 C240,420 420,520 640,470 C880,415 960,350 1120,380 C1320,420 1440,520 1600,470" />
    <path d="M0,520 C240,460 420,560 640,510 C880,455 960,390 1120,420 C1320,460 1440,560 1600,510" />
  </g>
</svg>
