<svg xmlns="http://www.w3.org/2000/svg" width="1600" height="600" viewBox="0 0 1600 600">
  <defs>
    <linearGradient id="g" x1="0" y1="0" x2="1" y2="1">
      <stop offset="0" stop-color="#6d28d9"/>
      <stop offset="0.55" stop-color="#a855f7"/>
      <stop offset="1" stop-color="#ec4899"/>
    </linearGradient>
    <radialGradient id="r" cx="30%" cy="20%" r="75%">
      <stop offset="0" stop-color="#ffffff" stop-opacity="0.20"/>
      <stop offset="1" stop-color="#ffffff" stop-opacity="0"/>
    </radialGradient>
  </defs>
  <rect width="1600" height="600" fill="url(#g)"/>
  <rect width="1600" height="600" fill="url(#r)"/>
  <g fill="#ffffff" fill-opacity="0.17">
    <path d="M240,420 C240,250 380,120 560,120 C740,120 880,250 880,420 C880,520 800,560 720,560 L400,560 C320,560 240,520 240,420 Z"/>
    <circle cx="1180" cy="210" r="130"/>
  </g>
  <g stroke="#ffffff" stroke-opacity="0.22" stroke-width="2" fill="none">
    <path d="M0,470 C220,390 360,520 600,470 C840,420 980,320 1200,380 C1400,430 1500,520 1600,470" />
  </g>
</svg>
