<svg width="200" height="200" viewBox="0 0 200 200" fill="none" xmlns="http://www.w3.org/2000/svg">
  <!-- Background -->
  <circle cx="100" cy="100" r="100" fill="#E8F5FF"/>
  
  <!-- Monitor/Screen -->
  <rect x="40" y="40" width="120" height="90" rx="8" fill="none" stroke="#0066CC" stroke-width="3"/>
  
  <!-- Screen content (waves for online) -->
  <path d="M 50 65 Q 60 60 70 65 T 90 65 T 110 65 T 130 65" stroke="#0066CC" stroke-width="2" fill="none"/>
  <path d="M 50 80 Q 60 75 70 80 T 90 80 T 110 80 T 130 80" stroke="#0066CC" stroke-width="2" fill="none"/>
  <path d="M 50 95 Q 60 90 70 95 T 90 95 T 110 95 T 130 95" stroke="#0066CC" stroke-width="2" fill="none"/>
  
  <!-- Monitor stand -->
  <rect x="85" y="130" width="30" height="20" fill="#0066CC"/>
  <path d="M 75 150 L 85 130 M 125 150 L 115 130" stroke="#0066CC" stroke-width="3"/>
  
  <!-- Text -->
  <text x="100" y="175" font-family="Arial" font-size="16" font-weight="bold" text-anchor="middle" fill="#0066CC">ONLINE</text>
</svg>